<svg xmlns="http://www.w3.org/2000/svg" version="1.1" xmlns:xlink="http://www.w3.org/1999/xlink" xmlns:svgjs="http://svgjs.dev/svgjs" width="1000" height="1125" viewBox="0 0 1000 1125"><g transform="matrix(1,0,0,1,0.00007343750002064553,0)"><svg viewBox="0 0 320 360" data-background-color="#ffffff" preserveAspectRatio="xMidYMid meet" height="1125" width="1000" xmlns="http://www.w3.org/2000/svg" xmlns:xlink="http://www.w3.org/1999/xlink"><g id="tight-bounds" transform="matrix(1,0,0,1,0.000023499999997511622,0)"><svg viewBox="0 0 320 360" height="360" width="320"><g><svg></svg></g><g><svg viewBox="0 0 320 360" height="360" width="320"><g><path transform="translate(-74.99272,-51.79039) scale(4.65793,4.65793)" d="M20.6 59.9l0.8 1-0.4-1.3c-0.1-0.6-0.8 0.1-0.4 0.3M21.5 59.3c0.3 0.5 0.6 1 0.6 1.5 0 0.7 0.6 1 1.1 1.2-0.7-0.8-1.1-3-1.7-2.7M59.9 16.9c1.7 0 3.3-0.2 5.1 0.2 4.4 1.1 8.1 3.3 10.6 6.4l7 11.2c0.3 2.8 0.9 5.9 0.8 9.3 0.7 0 0.6-1 1.4-1.2-0.8 2-1.2 4.5-1.4 7.4-0.5-1.6 0-4 0.1-5.3-0.7 1.1-1.1 0.3-1.1-0.2 0.1-0.8-0.3-0.7-0.6-1-1.1-1-1.8-2.1-2.6-3.8 0.5-1.3 0.6-3.2-1-4.2-0.5-0.3-1.1-0.8-1.4-1.6-0.4-1.1-1.1-2.4-0.9-4.1 0.1-0.5-1.5 1.1-2.4 0.4-3.9-2.7-7.8-5.8-12.5-8.4-2.5 0-4.3-0.9-5.2-2-0.8-1-0.2-2.3 1-2.4 0.7 0 1.5-0.2 2.1 0.2 0.1-0.4 0.5-0.9 1-0.9M50 14.6l0.2 0.1c1 0.2 1.5 1.6 2.6 1.1 0 0.7 0.1 1.4-0.1 1.9-0.3 0.8-1.2 0.8-1.9 0.8-6.7-0.4-10.6 2.4-14.7 4.8-1.1 0.7-2.3 1.2-3.2 2.1-4.3 4-9 7.7-10.1 15.1l-0.9 8.2c-0.1 0.9-1.1 1.8-0.9 2.9l0.7 4.9c-0.7-0.7-1.1 0.2-0.9 0.6 0.1 0.3 0.5 1.3 1.1 0.4 0.8 1.5 1.6 4.4 2.7 5.7 3.4 4 7.8 7.6 11.4 11.2 0.9-0.2 1.6-0.2 1.8-0.8 0.3 0.6-0.3 1.2-0.8 1.3 1.6 1 3.4 1.9 5.8 2.1 3.1 0.2 6 0.7 8.7 1.4 1.4-0.4 2.8-0.6 4.3-0.7 0.5 0 0.8-0.8 1.4-1l0.1-1c0.6 0.9 0.5-0.3 0.1-0.9 0.7 0.6 0.9 1.1 1.2 1.5 0-0.3 0.8-1.4 0.8-0.1l0.2-1.3c0.3-0.2 0.4 1.1 0.7 0.2 0.3-0.9 0.9-0.2 1.5-0.5-0.2 0.4-0.1 1.2 0.6 0.7l0.8-0.7c0.5 1.2 1.3 0.7 1.7 0.5 4.4-2.8 8.8-6.1 13-9.4l-0.1 1.3 0.5-1.6c0.5 0.5 0.9 0.1 1.1-0.2 0.6-1 1.4-2 2.7-2.9-1.6 4.3-3.5 7.7-5.9 10.5l-1 1.2c0 0.7-0.2 1.6-1 1.7-0.4 0.1-1.2-0.2-1.8 0.4-0.3 0.4 0.7 1.2-0.1 0.6-0.7-0.5-1.4 0-2.2 0.2-0.6 0.2 0.4 0.8 0.6 1.2 0.2 0.4 0.4 0.8 0.3 1.3l-1.1-1.2c-1.3 0.7-2.1 2-3.2 3-0.5 0.4-0.3 1.1-0.3 1.7-0.7 0-1.5-0.2-1.9 0.2-0.3 0.4-0.2 1-0.2 1.6-1-0.1-1.1-1.6-2-1.3-0.9 0.2-1.9 0.3-2.7 0.8 0.6 1.2-1 0.5-0.8 0.7-1.5-0.9-2.8-1.6-4.4-1-3.4-1.1-7.6-0.6-10.7-0.2 0-0.5 0.1-1-0.1-1.1-0.2 0.5-0.8 0.3-0.7 0.3-1.9-1.3-3.8-2.1-5.8-3.2-1.8 0.2-3.5-0.7-4-1.2-1.4-1.3-3-0.6-4.3-0.9-2.8-0.7-3.8-3.6-4.1-5.6-0.2-1-1-1.4-1.3-1.3-1.3-4.2-3.3-8-4.9-11.9-0.4-1-0.3-2-0.3-3.1 0.5 0.2 1 0.1 0.9-0.6-0.5-3.3-1.7-5.8-3-8.2 0.7-3.4 0.8-7.4 2.4-10.4 1.4-2.7 4-4.1 5.8-6.4 0.6-0.8 0.6-1.9 1.2-2.6 2-2 4-4.1 6.2-5.9 1-0.8 2.2 0 3.7-0.3 0.5-1.8 2.5-3.4 4.4-2.9 0.8 0.2 2.4-1.9 2.9-2.1 0.8-0.3 0.4 0.8 0.4 1.5 1.9-1.5 4.5-2.3 6.9-3.2" fill="#ffffff" fill-rule="nonzero" stroke="none" stroke-width="1" stroke-linecap="butt" stroke-linejoin="miter" stroke-miterlimit="10" stroke-dasharray="" stroke-dashoffset="0" font-family="none" font-weight="none" font-size="none" text-anchor="none" style="mix-blend-mode: normal" data-fill-palette-color="tertiary"></path></g><g transform="matrix(1,0,0,1,123.04639877444563,90)"><svg viewBox="0 0 73.90720245110872 180" height="180" width="73.90720245110872"><g><svg viewBox="0 0 73.90720245110872 180" height="180" width="73.90720245110872"><g><svg viewBox="0 0 113.48973607038123 276.4027295740534" height="180" width="73.90720245110872"><g transform="matrix(1,0,0,1,0,96.40272957405344)"><svg viewBox="0 0 113.48973607038123 180" height="180" width="113.48973607038123"><g id="textblocktransform"><svg viewBox="0 0 113.48973607038123 180" height="180" width="113.48973607038123" id="textblock"><g><svg viewBox="0 0 113.48973607038123 180" height="180" width="113.48973607038123"><g transform="matrix(1,0,0,1,0,0)"><svg width="113.48973607038123" viewBox="4 -34.1 21.5 34.1" height="180" data-palette-color="#ffffff"><path d="M4 0L4-34.1 15.4-34.1Q20-34.1 22.75-31.3 25.5-28.5 25.5-23.55L25.5-23.55Q25.5-18.65 22.63-15.85 19.75-13.05 15-13.05L15-13.05 7.75-13.05 7.75 0 4 0ZM7.75-16.15L14.9-16.15Q18.25-16.15 20-18.03 21.75-19.9 21.75-23.55L21.75-23.55Q21.75-27.2 20-29.1 18.25-31 14.9-31L14.9-31 7.75-31 7.75-16.15Z" opacity="1" transform="matrix(1,0,0,1,0,0)" fill="#ffffff" class="wordmark-text-0" data-fill-palette-color="primary" id="text-0"></path></svg></g></svg></g></svg></g></svg></g><g transform="matrix(1,0,0,1,21.676539589442818,0)"><svg viewBox="0 0 70.13665689149559 70.13640957405343" height="70.13640957405343" width="70.13665689149559"><g><svg xmlns="http://www.w3.org/2000/svg" xmlns:xlink="http://www.w3.org/1999/xlink" version="1.1" x="0" y="0" viewBox="7.734947788353146 7.7352458618416104 84.53054425048146 84.53024617699299" enable-background="new 0 0 100 100" xml:space="preserve" height="70.13640957405343" width="70.13665689149559" class="icon-icon-0" data-fill-palette-color="accent" id="icon-0"><g fill="#ffffff" data-fill-palette-color="accent"><g fill="#ffffff" data-fill-palette-color="accent"><g fill="#ffffff" data-fill-palette-color="accent"><path d="M28.368 14.767C42.162 16.327 48.04 25.762 49.69 30.695c1.07 3.198 1.472 5.094 1.472 9.275 0 0.817 0.044 2.076-1.054 2.216-0.77 0.099-1.209-0.509-1.273-1.182-0.289-3.026-1.159-6.569-4.008-9.85-2.253-2.594-7.472-7.802-16.652-7.021-2.669 0.228-5.052-1.868-5.129-4.564C22.964 16.703 25.531 14.446 28.368 14.767z" fill="#ffffff" data-fill-palette-color="accent"></path><path d="M71.633 85.232c-13.794-1.561-19.671-10.995-21.322-15.929-1.07-3.198-1.472-5.094-1.472-9.275 0-0.817-0.044-2.076 1.054-2.216 0.77-0.099 1.209 0.509 1.273 1.182 0.289 3.026 1.159 6.569 4.008 9.85 2.253 2.594 7.472 7.802 16.652 7.021 2.669-0.228 5.052 1.868 5.129 4.564C77.037 83.296 74.47 85.553 71.633 85.232z" fill="#ffffff" data-fill-palette-color="accent"></path></g><g fill="#ffffff" data-fill-palette-color="accent"><path d="M14.768 71.633c1.56-13.794 10.995-19.672 15.928-21.322 3.198-1.07 5.094-1.472 9.276-1.472 0.817 0 2.076-0.045 2.216 1.054 0.098 0.77-0.509 1.209-1.182 1.273-3.026 0.288-6.569 1.159-9.849 4.008-2.594 2.254-7.802 7.473-7.021 16.652 0.228 2.669-1.868 5.052-4.564 5.129C16.704 77.036 14.447 74.47 14.768 71.633z" fill="#ffffff" data-fill-palette-color="accent"></path><path d="M85.233 28.367c-1.56 13.794-10.995 19.672-15.928 21.322-3.198 1.07-5.094 1.472-9.276 1.472-0.817 0-2.076 0.045-2.216-1.054-0.098-0.77 0.509-1.209 1.182-1.273 3.026-0.288 6.569-1.159 9.849-4.008 2.594-2.254 7.802-7.473 7.021-16.652-0.228-2.669 1.868-5.052 4.564-5.129C83.297 22.964 85.554 25.53 85.233 28.367z" fill="#ffffff" data-fill-palette-color="accent"></path></g></g><g fill="#ffffff" data-fill-palette-color="accent"><g fill="#ffffff" data-fill-palette-color="accent"><path d="M13.65 30.304c12.726-5.546 22.533-0.314 26.43 3.133 2.526 2.234 3.821 3.676 5.912 7.297 0.409 0.708 1.077 1.775 0.195 2.446-0.617 0.47-1.302 0.164-1.693-0.387-1.763-2.477-4.289-5.109-8.396-6.525-3.249-1.12-10.373-3.021-17.931 2.246-2.198 1.531-5.309 0.907-6.724-1.389C9.938 34.682 11.033 31.444 13.65 30.304z" fill="#ffffff" data-fill-palette-color="accent"></path><path d="M86.351 69.695c-12.726 5.546-22.533 0.314-26.43-3.133-2.526-2.234-3.821-3.676-5.912-7.297-0.409-0.708-1.077-1.775-0.196-2.446 0.618-0.47 1.302-0.164 1.694 0.387 1.763 2.477 4.289 5.109 8.396 6.525 3.249 1.12 10.373 3.021 17.931-2.245 2.198-1.532 5.309-0.908 6.724 1.388C90.063 65.317 88.968 68.555 86.351 69.695z" fill="#ffffff" data-fill-palette-color="accent"></path></g><g fill="#ffffff" data-fill-palette-color="accent"><path d="M30.304 86.351c-5.546-12.726-0.314-22.533 3.133-26.43 2.235-2.525 3.676-3.821 7.298-5.912 0.708-0.409 1.775-1.076 2.445-0.195 0.47 0.617 0.164 1.302-0.387 1.693-2.477 1.764-5.109 4.289-6.525 8.396-1.12 3.248-3.021 10.372 2.246 17.931 1.531 2.198 0.908 5.31-1.389 6.725C34.683 90.062 31.445 88.968 30.304 86.351z" fill="#ffffff" data-fill-palette-color="accent"></path><path d="M69.696 13.649c5.546 12.726 0.314 22.533-3.133 26.43-2.234 2.526-3.675 3.821-7.297 5.913-0.708 0.408-1.775 1.076-2.446 0.195-0.47-0.618-0.163-1.303 0.388-1.694 2.477-1.763 5.109-4.288 6.525-8.396 1.12-3.249 3.021-10.372-2.246-17.932-1.532-2.198-0.908-5.309 1.388-6.724C65.318 9.938 68.556 11.032 69.696 13.649z" fill="#ffffff" data-fill-palette-color="accent"></path></g></g><g fill="#ffffff" data-fill-palette-color="accent"><g fill="#ffffff" data-fill-palette-color="accent"><path d="M8.671 51.118c8.248-11.166 19.357-11.539 24.456-10.502 3.305 0.672 5.147 1.272 8.769 3.363 0.708 0.408 1.82 0.999 1.392 2.021-0.299 0.716-1.045 0.793-1.66 0.512-2.765-1.263-6.269-2.28-10.533-1.453-3.374 0.654-10.494 2.57-14.406 10.911-1.138 2.425-4.144 3.44-6.518 2.159C7.646 56.766 6.976 53.414 8.671 51.118z" fill="#ffffff" data-fill-palette-color="accent"></path><path d="M91.329 48.882C83.081 60.047 71.971 60.42 66.874 59.383c-3.305-0.672-5.147-1.272-8.769-3.363-0.708-0.408-1.82-0.999-1.393-2.021 0.3-0.716 1.046-0.793 1.66-0.512 2.766 1.264 6.269 2.28 10.534 1.453 3.373-0.654 10.493-2.569 14.406-10.91 1.138-2.426 4.144-3.441 6.517-2.16C92.354 43.233 93.025 46.585 91.329 48.882z" fill="#ffffff" data-fill-palette-color="accent"></path></g><g fill="#ffffff" data-fill-palette-color="accent"><path d="M51.119 91.329C39.953 83.081 39.58 71.972 40.617 66.874c0.673-3.305 1.272-5.147 3.364-8.77 0.409-0.708 1-1.819 2.02-1.392 0.716 0.3 0.793 1.045 0.512 1.66-1.263 2.765-2.28 6.269-1.453 10.533 0.654 3.374 2.57 10.493 10.911 14.406 2.425 1.138 3.44 4.144 2.159 6.518C56.766 92.354 53.415 93.025 51.119 91.329z" fill="#ffffff" data-fill-palette-color="accent"></path><path d="M48.882 8.672c11.166 8.247 11.538 19.356 10.501 24.455-0.672 3.305-1.271 5.147-3.362 8.77-0.409 0.707-1 1.819-2.021 1.392-0.716-0.3-0.792-1.046-0.511-1.661 1.263-2.765 2.28-6.268 1.453-10.533-0.655-3.373-2.57-10.492-10.911-14.406-2.426-1.137-3.44-4.144-2.159-6.517C43.234 7.646 46.585 6.976 48.882 8.672z" fill="#ffffff" data-fill-palette-color="accent"></path></g></g></g></svg></g></svg></g><g></g></svg></g></svg></g></svg></g></svg></g><defs></defs></svg><rect width="320" height="360" fill="none" stroke="none" visibility="hidden"></rect></g></svg></g></svg>